<svg width="48" height="48" viewBox="0 0 48 48" fill="none" xmlns="http://www.w3.org/2000/svg">
<rect width="48" height="48" rx="10" fill="white"/>
<path fill-rule="evenodd" clip-rule="evenodd" d="M22.3633 25.1066L31.9092 34.6525C32.495 35.2383 33.4448 35.2383 34.0305 34.6525C34.6163 34.0668 34.6163 33.117 34.0305 32.5312L25.6631 24.1637C25.6661 24.1249 25.6676 24.0856 25.6676 24.0459C25.6676 24.0063 25.6661 23.967 25.6631 23.9282L34.0305 15.5607C34.6163 14.9749 34.6163 14.0251 34.0305 13.4393C33.4448 12.8536 32.495 12.8536 31.9092 13.4393L22.3633 22.9853C21.7775 23.5711 21.7775 24.5208 22.3633 25.1066ZM13.4393 25.4706L22.9853 35.0165C23.5711 35.6023 24.5208 35.6023 25.1066 35.0165C25.6924 34.4307 25.6924 33.481 25.1066 32.8952L16.7391 24.5277C16.7421 24.4888 16.7436 24.4496 16.7436 24.4099C16.7436 24.3703 16.7421 24.331 16.7391 24.2922L25.1066 15.9246C25.6924 15.3389 25.6924 14.3891 25.1066 13.8033C24.5208 13.2175 23.5711 13.2175 22.9853 13.8033L13.4393 23.3493C12.8536 23.9351 12.8536 24.8848 13.4393 25.4706Z" fill="black"/>
</svg>
