<svg width="430" height="885" viewBox="0 0 430 885" fill="none" xmlns="http://www.w3.org/2000/svg">
<path fill-rule="evenodd" clip-rule="evenodd" d="M-36.9728 625.945C-6.66176 623.464 14.4118 569.834 41.7567 583.109C68.0273 595.863 38.9928 641.909 50.8067 668.559C60.688 690.849 93.5781 696.237 102.041 719.1C111.228 743.916 112.58 774.69 98.3601 797.021C84.1459 819.343 55.4085 829.27 29.2266 833.448C6.50705 837.073 -14.1852 821.787 -36.9728 818.615C-55.9051 815.98 -75.7671 823.991 -93.2991 816.394C-111.537 808.49 -122.864 791.12 -135.587 775.88C-150.553 757.953 -171.341 742.21 -174.525 719.1C-177.767 695.56 -163.762 673.518 -152.577 652.538C-141.078 630.97 -132.448 600.901 -108.58 595.411C-82.8468 589.491 -63.2938 628.098 -36.9728 625.945Z" fill="#A95CE0"/>
<path fill-rule="evenodd" clip-rule="evenodd" d="M4.03613 -151.759C49.4478 -148.37 93.4059 -129.578 119.416 -92.2137C143.664 -57.3819 138.538 -13.074 129.431 28.3732C120.194 70.4133 110.107 121.413 69.3967 135.434C30.342 148.885 -1.41011 106.051 -37.4338 85.8437C-68.5625 68.3826 -105.579 60.358 -121.435 28.3906C-143.296 -15.6835 -163.294 -70.8373 -135.174 -111.21C-106.119 -152.927 -46.674 -155.543 4.03613 -151.759Z" fill="#A95CE0"/>
<path fill-rule="evenodd" clip-rule="evenodd" d="M410.487 138.279C432.165 142.042 453.017 123.467 474.244 129.263C501.113 136.599 535.827 147.122 542.24 174.25C548.767 201.858 511.351 220.082 502.049 246.881C493.071 272.746 508.771 306.547 489.555 326.036C470.294 345.569 437.897 339.018 410.487 339.741C382.241 340.486 352.41 345.091 328.335 330.286C303.41 314.959 278.806 288.781 280.045 259.526C281.293 230.045 325.429 220.462 334.177 192.283C343.146 163.391 303.667 121.399 328.347 103.934C353.184 86.3569 380.517 133.076 410.487 138.279Z" fill="#A95CE0"/>
<path fill-rule="evenodd" clip-rule="evenodd" d="M476.896 515.213C538.548 504.739 615.249 518.776 645.394 573.58C673.93 625.459 614.127 678.658 598.161 735.676C584.049 786.07 606.725 857.039 559.633 879.842C512.533 902.649 469.589 843.801 422.651 820.662C376.729 798.023 308.792 798.845 295.187 749.476C281.429 699.552 335.831 661.694 367.567 620.779C400.235 578.663 424.358 524.139 476.896 515.213Z" fill="#A95CE0"/>
<path fill-rule="evenodd" clip-rule="evenodd" d="M338.748 512.615C357.695 535.491 370.143 570.374 354.78 595.777C340.238 619.825 304.172 607.847 276.948 614.807C252.887 620.959 229.107 647.125 208.552 633.164C187.993 619.2 201.977 587.572 200.339 562.773C198.736 538.511 182.263 510.76 199.321 493.449C216.569 475.945 245.048 489.341 269.4 492.689C294.466 496.134 322.602 493.12 338.748 512.615Z" fill="#A95CE0"/>
<path fill-rule="evenodd" clip-rule="evenodd" d="M67.056 168.184C77.7541 172.367 82.5109 184.622 91.7369 191.493C99.6132 197.359 110.557 198.095 117.088 205.446C124.236 213.493 130.556 223.743 129.961 234.52C129.369 245.24 119.621 252.677 113.976 261.786C108.54 270.56 105.786 281.417 97.2962 287.239C88.6172 293.191 77.3364 291.803 67.056 293.963C54.0151 296.703 39.6593 309.055 28.528 301.688C17.1345 294.148 22.2422 275.698 19.2312 262.312C17.1184 252.919 15.0479 244.011 13.4198 234.52C11.4542 223.063 6.18382 211.935 8.6396 200.574C11.4481 187.581 16.5292 173.023 28.1 166.607C39.6803 160.186 54.7325 163.364 67.056 168.184Z" fill="#A95CE0"/>
<path fill-rule="evenodd" clip-rule="evenodd" d="M393.405 16.1199C405.572 15.12 414.031 -6.50168 425.008 -1.14961C435.553 3.99217 423.899 22.5562 428.641 33.3005C432.607 42.2871 445.81 44.4592 449.207 53.6768C452.894 63.6817 453.437 76.0886 447.729 85.0916C442.023 94.0909 430.488 98.093 419.978 99.7773C410.858 101.239 402.552 95.0762 393.405 93.7975C385.806 92.7351 377.833 95.9649 370.795 92.9018C363.475 89.7154 358.928 82.7125 353.821 76.5681C347.813 69.3407 339.469 62.9937 338.191 53.6768C336.889 44.1864 342.511 35.2998 347.001 26.8416C351.616 18.1462 355.081 6.02349 364.661 3.80995C374.991 1.4233 382.84 16.9883 393.405 16.1199Z" fill="#A95CE0"/>
</svg>
