<svg width="48" height="48" viewBox="0 0 48 48" fill="none" xmlns="http://www.w3.org/2000/svg">
<rect width="48" height="48" rx="10" fill="white"/>
<path d="M13.5 13.5C13.5 11.567 15.067 10 17 10H31C32.933 10 34.5 11.567 34.5 13.5V29.8333C34.5 30.4777 33.9777 31 33.3333 31H18.1667C16.878 31 15.8333 32.0447 15.8333 33.3333C15.8333 34.622 16.878 35.6667 18.1667 35.6667H33.3333C33.9777 35.6667 34.5 36.189 34.5 36.8333C34.5 37.4777 33.9777 38 33.3333 38H18.1667C15.5893 38 13.5 35.9107 13.5 33.3333C13.5 33.2022 13.5054 33.0722 13.516 32.9438C13.5055 32.8808 13.5 32.816 13.5 32.75V13.5ZM32.1667 13.5C32.1667 12.8557 31.6443 12.3333 31 12.3333H17C16.3557 12.3333 15.8333 12.8557 15.8333 13.5V29.291C16.5197 28.8939 17.3167 28.6667 18.1667 28.6667H32.1667V13.5ZM18.1667 32.1667C17.5223 32.1667 17 32.689 17 33.3333C17 33.9777 17.5223 34.5 18.1667 34.5H33.3333C33.9777 34.5 34.5 33.9777 34.5 33.3333C34.5 32.689 33.9777 32.1667 33.3333 32.1667H18.1667Z" fill="black"/>
</svg>
